<svg version="1.1" id="Layer_1" xmlns="http://www.w3.org/2000/svg" xmlns:xlink="http://www.w3.org/1999/xlink" x="0px" y="0px"
	 width="100%" viewBox="0 0 481 190" enable-background="new 0 0 481 190" xml:space="preserve">
<path fill="#000202" opacity="1.000000" stroke="none" 
	d="
M1.000000,17.000000 
	C1.000000,11.668415 1.000000,6.336830 1.000000,1.003934 
	C161.279022,1.002623 321.558044,1.002623 481.918518,1.002623 
	C481.918518,64.258163 481.918518,127.516472 481.918518,190.887390 
	C321.666718,190.887390 161.333374,190.887390 1.000013,190.885223 
	C1.000000,135.567810 1.000000,80.252563 1.366021,24.367435 
	C6.491930,34.451221 11.485696,45.007610 15.965643,55.777721 
	C27.144489,82.652489 38.104759,109.618286 49.121696,136.560242 
	C53.686211,147.722778 58.151051,158.926025 62.707901,170.091721 
	C63.768772,172.691193 64.705681,175.128967 68.525421,175.053345 
	C80.174141,174.822769 91.830643,174.925140 103.483498,174.997375 
	C107.401184,175.021652 108.682373,173.447372 107.253548,169.759048 
	C106.775665,168.525452 106.392372,167.253387 105.878136,166.035965 
	C96.169434,143.050873 86.358383,120.108551 76.752388,97.080673 
	C66.194962,71.771980 55.884266,46.360161 45.255573,21.081779 
	C44.413609,19.079321 41.941418,16.372997 40.205292,16.357162 
	C27.139902,16.237993 14.069106,16.711657 1.000000,17.000000 
M378.043549,49.896545 
	C374.137817,40.537731 370.234802,31.177776 366.324890,21.820704 
	C364.886932,18.379404 362.455536,16.746809 358.564423,16.814041 
	C350.072205,16.960775 341.574402,16.748142 333.079803,16.808838 
	C328.142273,16.844116 327.137024,18.349552 329.043091,23.034073 
	C335.248505,38.285095 341.540436,53.501087 347.841064,68.713165 
	C357.639923,92.371269 367.475830,116.014015 377.290771,139.665451 
	C381.432709,149.646317 385.635468,159.602982 389.656372,169.632446 
	C391.100464,173.234482 393.386200,174.725510 397.294403,174.589096 
	C403.952484,174.356674 410.623993,174.499023 417.289856,174.501953 
	C432.084717,174.508469 432.563934,176.358948 425.893951,160.507019 
	C410.414734,123.718819 394.234955,87.225395 378.043549,49.896545 
M308.988068,151.894501 
	C309.592041,150.173523 310.230865,148.463837 310.793488,146.729446 
	C312.466095,141.573547 315.690399,139.307449 321.338959,140.074570 
	C325.431885,140.630432 329.649963,140.338943 333.811096,140.300827 
	C340.681854,140.237900 341.109741,139.548141 338.507812,133.143875 
	C329.701111,111.467476 320.906464,89.786133 312.037781,68.135109 
	C311.526093,66.885895 310.398529,65.888939 309.557587,64.774605 
	C308.501007,65.846046 307.015839,66.730881 306.455261,68.018303 
	C301.755768,78.811104 297.380371,89.746185 292.612671,100.507858 
	C283.005402,122.193466 273.165802,143.776169 263.560364,165.462585 
	C262.466705,167.931702 262.257233,170.792450 261.450958,174.279739 
	C274.129822,174.279739 286.065948,174.366959 297.996002,174.137726 
	C299.123444,174.116074 300.670929,172.305084 301.241241,170.986526 
	C303.864227,164.922134 306.209473,158.737610 308.988068,151.894501 
M162.046417,46.699665 
	C165.461121,38.823685 168.966599,30.985369 172.255615,23.057249 
	C174.152771,18.484236 172.761993,16.204325 167.971786,16.139843 
	C157.317062,15.996412 146.658127,16.009647 136.003052,16.137886 
	C132.447983,16.180674 129.868454,17.660439 128.679962,21.572309 
	C127.149437,26.609951 125.010742,31.470060 123.012558,36.356972 
	C117.629547,49.522057 112.211472,62.673027 106.745293,75.803780 
	C104.636559,80.869347 104.112053,85.701866 106.478271,91.013748 
	C111.860107,103.095291 116.746223,115.396889 121.989868,127.541672 
	C122.690277,129.163879 124.295914,130.395233 125.482353,131.807587 
	C126.955330,130.379425 129.095749,129.221970 129.801300,127.482536 
	C140.603165,100.851639 151.217819,74.144821 162.046417,46.699665 
z"/>
<path fill="#0D657C" opacity="1.000000" stroke="none" 
	d="
M1.000000,17.437500 
	C14.069106,16.711657 27.139902,16.237993 40.205292,16.357162 
	C41.941418,16.372997 44.413609,19.079321 45.255573,21.081779 
	C55.884266,46.360161 66.194962,71.771980 76.752388,97.080673 
	C86.358383,120.108551 96.169434,143.050873 105.878136,166.035965 
	C106.392372,167.253387 106.775665,168.525452 107.253548,169.759048 
	C108.682373,173.447372 107.401184,175.021652 103.483498,174.997375 
	C91.830643,174.925140 80.174141,174.822769 68.525421,175.053345 
	C64.705681,175.128967 63.768772,172.691193 62.707901,170.091721 
	C58.151051,158.926025 53.686211,147.722778 49.121696,136.560242 
	C38.104759,109.618286 27.144489,82.652489 15.965643,55.777721 
	C11.485696,45.007610 6.491930,34.451221 1.366021,23.898777 
	C1.000000,21.958334 1.000000,19.916666 1.000000,17.437500 
M4.652425,19.156136 
	C4.593093,19.277260 4.454608,19.432457 4.489322,19.513098 
	C4.592023,19.751675 4.763125,19.960808 5.111002,20.554764 
	C5.272691,20.790859 5.471298,20.990158 5.808890,21.898251 
	C8.488260,28.261843 11.167631,34.625435 14.102492,41.686619 
	C18.710646,52.789932 23.318800,63.893246 28.043369,75.733101 
	C29.955923,80.244141 31.868475,84.755188 33.957386,89.945206 
	C35.272903,92.961815 36.588425,95.978424 38.129837,99.699593 
	C42.644306,110.576187 47.158775,121.452782 51.776848,133.055344 
	C55.467209,141.725601 59.157574,150.395859 62.889805,159.805420 
	C62.946117,160.542969 63.002430,161.280533 63.216118,162.522583 
	C63.496574,162.725876 63.777027,162.929184 64.353325,163.757126 
	C67.394501,173.528610 67.473305,173.589157 76.846436,172.868286 
	C84.119675,172.925308 91.392929,173.025726 98.666153,173.023911 
	C103.420639,173.022720 104.472198,171.653137 102.667702,167.349686 
	C98.954956,158.495331 95.025749,149.731735 91.052063,140.198105 
	C83.871178,123.033661 76.690300,105.869209 69.371094,87.969597 
	C65.634308,79.201500 61.897522,70.433403 58.143414,60.931030 
	C55.561893,55.089249 52.980373,49.247463 50.327011,42.709713 
	C48.593861,38.745384 46.860710,34.781055 45.076221,30.080912 
	C43.704632,26.728497 42.333038,23.376081 40.743435,19.292179 
	C38.481678,18.898882 36.219921,18.505583 33.047245,18.074856 
	C29.702381,18.152426 26.357515,18.229996 22.094259,18.139748 
	C18.073336,18.182671 14.052411,18.225594 9.343436,18.201023 
	C8.884475,18.234144 8.425513,18.267265 7.351200,18.229868 
	C6.564569,18.465048 5.777938,18.700228 4.652425,19.156136 
z"/>
<path fill="#02EDF0" opacity="1.000000" stroke="none" 
	d="
M378.191345,50.254517 
	C394.234955,87.225395 410.414734,123.718819 425.893951,160.507019 
	C432.563934,176.358948 432.084717,174.508469 417.289856,174.501953 
	C410.623993,174.499023 403.952484,174.356674 397.294403,174.589096 
	C393.386200,174.725510 391.100464,173.234482 389.656372,169.632446 
	C385.635468,159.602982 381.432709,149.646317 377.290771,139.665451 
	C367.475830,116.014015 357.639923,92.371269 347.841064,68.713165 
	C341.540436,53.501087 335.248505,38.285095 329.043091,23.034073 
	C327.137024,18.349552 328.142273,16.844116 333.079803,16.808838 
	C341.574402,16.748142 350.072205,16.960775 358.564423,16.814041 
	C362.455536,16.746809 364.886932,18.379404 366.324890,21.820704 
	C370.234802,31.177776 374.137817,40.537731 378.191345,50.254517 
z"/>
<path fill="#02ECEF" opacity="1.000000" stroke="none" 
	d="
M308.821228,152.245346 
	C306.209473,158.737610 303.864227,164.922134 301.241241,170.986526 
	C300.670929,172.305084 299.123444,174.116074 297.996002,174.137726 
	C286.065948,174.366959 274.129822,174.279739 261.450958,174.279739 
	C262.257233,170.792450 262.466705,167.931702 263.560364,165.462585 
	C273.165802,143.776169 283.005402,122.193466 292.612671,100.507858 
	C297.380371,89.746185 301.755768,78.811104 306.455261,68.018303 
	C307.015839,66.730881 308.501007,65.846046 309.557587,64.774597 
	C310.398529,65.888939 311.526093,66.885895 312.037781,68.135109 
	C320.906464,89.786133 329.701111,111.467476 338.507812,133.143875 
	C341.109741,139.548141 340.681854,140.237900 333.811096,140.300827 
	C329.649963,140.338943 325.431885,140.630432 321.338959,140.074570 
	C315.690399,139.307449 312.466095,141.573547 310.793488,146.729446 
	C310.230865,148.463837 309.592041,150.173523 308.821228,152.245346 
z"/>
<path fill="#0D677E" opacity="1.000000" stroke="none" 
	d="
M161.961258,47.077679 
	C151.217819,74.144821 140.603165,100.851639 129.801300,127.482536 
	C129.095749,129.221970 126.955330,130.379425 125.482353,131.807587 
	C124.295914,130.395233 122.690277,129.163879 121.989868,127.541672 
	C116.746223,115.396889 111.860107,103.095291 106.478271,91.013748 
	C104.112053,85.701866 104.636559,80.869347 106.745293,75.803780 
	C112.211472,62.673027 117.629547,49.522057 123.012558,36.356972 
	C125.010742,31.470060 127.149437,26.609951 128.679962,21.572309 
	C129.868454,17.660439 132.447983,16.180674 136.003052,16.137886 
	C146.658127,16.009647 157.317062,15.996412 167.971786,16.139843 
	C172.761993,16.204325 174.152771,18.484236 172.255615,23.057249 
	C168.966599,30.985369 165.461121,38.823685 161.961258,47.077679 
M132.480545,21.629602 
	C130.433640,27.031635 128.386734,32.433666 125.836304,38.276802 
	C120.491333,51.546162 115.304367,64.882721 109.706688,78.044609 
	C107.990707,82.079407 107.972603,85.594368 109.627357,89.509209 
	C114.158920,100.230118 118.505127,111.029259 122.991554,121.769508 
	C123.625763,123.287773 124.632751,124.650330 126.268349,127.462349 
	C128.261536,121.753708 129.718155,117.581818 131.666550,112.853844 
	C135.451279,102.903389 139.236023,92.952942 143.387512,82.384171 
	C152.374969,61.317120 161.362427,40.250069 170.659821,18.456465 
	C158.238220,18.456465 147.130463,18.386072 136.026855,18.567905 
	C134.944458,18.585632 133.887543,20.159033 132.480545,21.629602 
z"/>
<path fill="#09B4C0" opacity="1.000000" stroke="none" 
	d="
M51.673244,132.329376 
	C47.158775,121.452782 42.644306,110.576187 38.382790,99.369324 
	C41.357410,101.619827 44.079082,104.200592 47.914913,107.837845 
	C48.407051,104.217384 48.967976,102.035942 48.952564,99.858589 
	C48.894146,91.605232 48.280499,83.337097 48.640060,75.107941 
	C48.802895,71.381348 48.657463,68.367828 46.105263,65.484299 
	C44.780186,63.987198 44.128033,61.894505 43.375687,60.459576 
	C46.531918,60.270287 48.822868,60.132893 51.113819,59.995495 
	C50.743423,58.329967 50.373032,56.664440 50.002213,54.599037 
	C50.001038,53.132729 50.000290,52.066292 50.210186,50.755402 
	C50.413506,48.142521 50.406181,45.774101 50.398853,43.405678 
	C52.980373,49.247463 55.561893,55.089249 57.988258,61.668667 
	C57.651855,63.695065 57.145947,65.036942 57.346588,66.263229 
	C58.138779,71.105110 59.139595,75.913322 60.100105,80.726631 
	C60.226234,81.358719 60.388229,82.221252 60.836288,82.514320 
	C64.826683,85.124474 64.009354,89.155869 63.978848,92.916306 
	C63.949463,96.538803 62.388195,100.920845 63.902130,103.623627 
	C67.079758,109.296555 64.938728,113.641472 62.816067,118.500565 
	C61.030346,122.588364 59.592472,126.828125 57.584061,131.000580 
	C55.336086,131.443481 53.504665,131.886429 51.673244,132.329376 
z"/>
<path fill="#08BEC8" opacity="1.000000" stroke="none" 
	d="
M63.058746,162.018082 
	C63.002430,161.280533 62.946117,160.542969 63.168564,159.259033 
	C64.630119,156.142014 65.812920,153.571381 66.996147,150.667877 
	C66.996300,149.891251 66.996033,149.447495 67.058701,148.646439 
	C68.924500,144.760666 70.856567,141.290085 72.474655,137.678818 
	C73.260582,135.924744 74.010590,133.849808 73.819641,132.020020 
	C73.249924,126.560516 73.418381,121.382179 75.218773,116.036903 
	C75.999077,113.720207 75.277000,109.511543 73.593842,108.032249 
	C69.791878,104.690781 68.624847,100.367828 66.863647,96.137222 
	C65.460892,92.767624 66.221870,90.326378 69.509415,88.704765 
	C76.690300,105.869209 83.871178,123.033661 90.771835,140.657730 
	C82.451294,146.672287 82.618942,146.642090 84.243164,155.658096 
	C84.559288,157.412949 83.206520,159.605988 82.276932,161.419205 
	C80.313683,165.248627 78.121292,168.960587 76.022903,172.720734 
	C67.473305,173.589157 67.394501,173.528610 64.069794,163.230438 
	C63.543751,162.475204 63.301250,162.246643 63.058746,162.018082 
M69.758850,158.145355 
	C68.894623,160.568161 68.595718,163.300735 71.833557,163.418152 
	C73.162964,163.466385 75.136375,160.903793 75.843941,159.138779 
	C76.739845,156.904007 76.887871,154.270065 76.871246,151.811569 
	C76.863182,150.619171 75.745361,149.434265 75.129967,148.245972 
	C73.999603,149.045563 72.364014,149.605820 71.847466,150.696198 
	C70.869568,152.760406 70.533997,155.128937 69.758850,158.145355 
z"/>
<path fill="#08BAC5" opacity="1.000000" stroke="none" 
	d="
M69.440254,88.337181 
	C66.221870,90.326378 65.460892,92.767624 66.863647,96.137222 
	C68.624847,100.367828 69.791878,104.690781 73.593842,108.032249 
	C75.277000,109.511543 75.999077,113.720207 75.218773,116.036903 
	C73.418381,121.382179 73.249924,126.560516 73.819641,132.020020 
	C74.010590,133.849808 73.260582,135.924744 72.474655,137.678818 
	C70.856567,141.290085 68.924500,144.760666 66.707626,148.510529 
	C65.534500,142.337387 59.038120,136.891342 64.371758,129.338852 
	C61.425171,130.106674 59.712280,130.553040 57.999695,130.999695 
	C58.000000,131.000000 58.000610,131.000610 58.000610,131.000610 
	C59.592472,126.828125 61.030346,122.588364 62.816067,118.500565 
	C64.938728,113.641472 67.079758,109.296555 63.902130,103.623627 
	C62.388195,100.920845 63.949463,96.538803 63.978848,92.916306 
	C64.009354,89.155869 64.826683,85.124474 60.836288,82.514320 
	C60.388229,82.221252 60.226234,81.358719 60.100105,80.726631 
	C59.139595,75.913322 58.138779,71.105110 57.346588,66.263229 
	C57.145947,65.036942 57.651855,63.695065 57.996918,62.035805 
	C61.897522,70.433403 65.634308,79.201500 69.440254,88.337181 
z"/>
<path fill="#0AADBA" opacity="1.000000" stroke="none" 
	d="
M40.961449,20.023666 
	C42.333038,23.376081 43.704632,26.728497 44.855301,30.749636 
	C44.243217,33.566490 43.821785,35.709694 43.471035,37.864403 
	C43.217785,39.420139 43.496605,41.233356 42.787189,42.516605 
	C37.673241,51.767159 38.189320,60.750374 44.555832,69.104729 
	C47.164715,72.528191 46.515705,75.358871 42.496719,77.246574 
	C42.320526,76.409073 42.367928,75.477867 41.946999,74.872101 
	C41.045040,73.574089 39.901165,72.444183 38.856361,71.245438 
	C38.367786,72.920670 37.715790,74.573158 37.477757,76.283264 
	C37.392475,76.895943 38.586304,77.598907 38.716427,78.344421 
	C39.298302,81.678139 39.706940,85.042091 40.178127,88.395126 
	C38.167076,88.571922 36.155472,88.743004 34.146252,88.938652 
	C34.015121,88.951416 33.902344,89.152657 33.781029,89.266228 
	C31.868475,84.755188 29.955923,80.244141 28.358019,75.383286 
	C30.444681,76.441811 32.216694,77.850136 34.100014,79.346931 
	C34.100014,74.190521 34.100014,69.138817 34.100014,63.799477 
	C38.343502,64.560204 38.288132,61.592804 37.812500,58.100990 
	C37.390907,55.005878 37.486824,51.828362 36.912327,48.770248 
	C36.540661,46.791821 35.876976,44.379185 34.474438,43.169415 
	C28.847654,38.315983 29.105299,30.906567 26.377226,25.003016 
	C27.500969,25.003292 28.250160,25.004126 29.069286,25.344738 
	C30.122499,26.282841 31.105778,26.881163 32.089054,27.479485 
	C32.638535,26.135984 33.907330,24.535894 33.544205,23.517927 
	C33.145538,22.400312 31.243221,21.819069 29.558887,21.003830 
	C27.081358,21.001726 25.041021,20.999908 23.000729,20.659267 
	C23.004732,19.649485 23.008692,18.978523 23.012651,18.307564 
	C26.357515,18.229996 29.702381,18.152426 33.651825,18.430531 
	C36.491417,19.198690 38.726433,19.611177 40.961449,20.023666 
M35.429386,34.042278 
	C35.790558,34.578812 36.151730,35.115345 36.512901,35.651878 
	C36.813984,35.364830 37.115067,35.077778 37.416149,34.790730 
	C36.880169,34.410427 36.344193,34.030121 35.429386,34.042278 
z"/>
<path fill="#09AFBC" opacity="1.000000" stroke="none" 
	d="
M33.869205,89.605713 
	C33.902344,89.152657 34.015121,88.951416 34.146252,88.938652 
	C36.155472,88.743004 38.167076,88.571922 40.178127,88.395126 
	C39.706940,85.042091 39.298302,81.678139 38.716427,78.344421 
	C38.586304,77.598907 37.392475,76.895943 37.477757,76.283264 
	C37.715790,74.573158 38.367786,72.920670 38.856361,71.245438 
	C39.901165,72.444183 41.045040,73.574089 41.946999,74.872101 
	C42.367928,75.477867 42.320526,76.409073 42.496719,77.246574 
	C46.515705,75.358871 47.164715,72.528191 44.555832,69.104729 
	C38.189320,60.750374 37.673241,51.767159 42.787189,42.516605 
	C43.496605,41.233356 43.217785,39.420139 43.471035,37.864403 
	C43.821785,35.709694 44.243217,33.566490 44.880970,31.117542 
	C46.860710,34.781055 48.593861,38.745384 50.362930,43.057693 
	C50.406181,45.774101 50.413506,48.142521 49.927307,50.590736 
	C48.284992,49.874817 47.136200,49.079105 45.987411,48.283394 
	C45.429249,48.493317 44.871082,48.703239 44.312920,48.913162 
	C44.716476,51.177185 44.981373,53.488445 45.714474,55.640194 
	C45.797886,55.885010 48.509624,55.234352 50.002640,54.998913 
	C50.373032,56.664440 50.743423,58.329967 51.113819,59.995495 
	C48.822868,60.132893 46.531918,60.270287 43.375687,60.459576 
	C44.128033,61.894505 44.780186,63.987198 46.105263,65.484299 
	C48.657463,68.367828 48.802895,71.381348 48.640060,75.107941 
	C48.280499,83.337097 48.894146,91.605232 48.952564,99.858589 
	C48.967976,102.035942 48.407051,104.217384 47.914913,107.837845 
	C44.079082,104.200592 41.357410,101.619827 38.269840,99.017044 
	C36.588425,95.978424 35.272903,92.961815 33.869205,89.605713 
z"/>
<path fill="#0AA9B7" opacity="1.000000" stroke="none" 
	d="
M26.002674,25.003572 
	C29.105299,30.906567 28.847654,38.315983 34.474438,43.169415 
	C35.876976,44.379185 36.540661,46.791821 36.912327,48.770248 
	C37.486824,51.828362 37.390907,55.005878 37.812500,58.100990 
	C38.288132,61.592804 38.343502,64.560204 34.100014,63.799477 
	C34.100014,69.138817 34.100014,74.190521 34.100014,79.346931 
	C32.216694,77.850136 30.444681,76.441811 28.299810,75.015015 
	C23.318800,63.893246 18.710646,52.789932 14.366184,41.356262 
	C23.469355,42.042587 20.148691,51.193714 24.231985,56.488865 
	C25.075281,54.606030 25.989235,53.572746 25.863546,52.686989 
	C24.841755,45.486187 26.240211,37.940742 22.141956,31.157005 
	C19.154322,26.211643 19.761475,25.569407 26.002674,25.003572 
z"/>
<path fill="#07C5CE" opacity="1.000000" stroke="none" 
	d="
M76.434669,172.794510 
	C78.121292,168.960587 80.313683,165.248627 82.276932,161.419205 
	C83.206520,159.605988 84.559288,157.412949 84.243164,155.658096 
	C82.618942,146.642090 82.451294,146.672287 90.838615,141.024078 
	C95.025749,149.731735 98.954956,158.495331 102.667702,167.349686 
	C104.472198,171.653137 103.420639,173.022720 98.666153,173.023911 
	C91.392929,173.025726 84.119675,172.925308 76.434669,172.794510 
M81.215065,169.356476 
	C82.988739,169.263840 84.762413,169.171204 86.536087,169.078568 
	C85.899529,168.115036 85.409187,166.503830 84.596535,166.320389 
	C82.805687,165.916092 80.298027,165.427383 81.215065,169.356476 
z"/>
<path fill="#0BA4B2" opacity="1.000000" stroke="none" 
	d="
M26.377226,25.003016 
	C19.761475,25.569407 19.154322,26.211643 22.141956,31.157005 
	C26.240211,37.940742 24.841755,45.486187 25.863546,52.686989 
	C25.989235,53.572746 25.075281,54.606030 24.231985,56.488865 
	C20.148691,51.193714 23.469355,42.042587 14.238440,41.007469 
	C11.167631,34.625435 8.488260,28.261843 6.093088,21.421242 
	C6.907042,20.062950 7.436797,19.181669 7.966553,18.300386 
	C8.425513,18.267265 8.884475,18.234144 9.707150,18.589348 
	C11.472893,19.885160 12.821606,21.441729 14.288285,21.562208 
	C17.157612,21.797905 20.092775,21.232105 23.000687,20.998089 
	C25.041021,20.999908 27.081358,21.001726 29.548389,21.351461 
	C29.649841,22.801239 29.324596,23.903099 28.999352,25.004959 
	C28.250160,25.004126 27.500969,25.003292 26.377226,25.003016 
z"/>
<path fill="#08BAC5" opacity="1.000000" stroke="none" 
	d="
M66.995720,151.000732 
	C65.812920,153.571381 64.630119,156.142014 63.147629,158.889389 
	C59.157574,150.395859 55.467209,141.725601 51.725044,132.692352 
	C53.504665,131.886429 55.336086,131.443481 57.584061,131.000580 
	C58.000610,131.000610 58.000000,131.000000 57.999878,131.443069 
	C58.749691,136.906509 59.263157,141.977402 60.322098,146.931732 
	C61.218407,151.125198 64.323372,152.763275 66.995720,151.000732 
z"/>
<path fill="#0AABB8" opacity="1.000000" stroke="none" 
	d="
M23.000729,20.659267 
	C20.092775,21.232105 17.157612,21.797905 14.288285,21.562208 
	C12.821606,21.441729 11.472893,19.885160 10.051174,18.623095 
	C14.052411,18.225594 18.073336,18.182671 22.553455,18.223656 
	C23.008692,18.978523 23.004732,19.649485 23.000729,20.659267 
z"/>
<path fill="#0C95A6" opacity="1.000000" stroke="none" 
	d="
M40.852440,19.657923 
	C38.726433,19.611177 36.491417,19.198690 34.107285,18.449245 
	C36.219921,18.505583 38.481678,18.898882 40.852440,19.657923 
z"/>
<path fill="#0AABB8" opacity="1.000000" stroke="none" 
	d="
M7.658876,18.265127 
	C7.436797,19.181669 6.907042,20.062950 6.042055,21.048447 
	C5.471298,20.990158 5.272691,20.790859 5.035943,20.056313 
	C4.971025,19.350378 4.981166,19.142893 4.991308,18.935408 
	C5.777938,18.700228 6.564569,18.465048 7.658876,18.265127 
z"/>
<path fill="#0BA4B2" opacity="1.000000" stroke="none" 
	d="
M4.821867,19.045773 
	C4.981166,19.142893 4.971025,19.350378 4.934178,19.869659 
	C4.763125,19.960808 4.592023,19.751675 4.489322,19.513098 
	C4.454608,19.432457 4.593093,19.277260 4.821867,19.045773 
z"/>
<path fill="#08BAC5" opacity="1.000000" stroke="none" 
	d="
M63.137432,162.270325 
	C63.301250,162.246643 63.543751,162.475204 63.921867,162.918121 
	C63.777027,162.929184 63.496574,162.725876 63.137432,162.270325 
z"/>
<path fill="#05D2D9" opacity="1.000000" stroke="none" 
	d="
M131.174774,113.409935 
	C129.718155,117.581818 128.261536,121.753708 126.268349,127.462349 
	C124.632751,124.650330 123.625763,123.287773 122.991554,121.769508 
	C118.505127,111.029259 114.158920,100.230118 109.627357,89.509209 
	C107.972603,85.594368 107.990707,82.079407 109.706688,78.044609 
	C115.304367,64.882721 120.491333,51.546162 126.532944,38.096794 
	C128.785233,39.258507 131.590805,40.535572 131.664169,41.953976 
	C131.892059,46.359200 132.141846,51.293983 130.414337,55.138680 
	C128.126984,60.229359 129.240982,64.651726 130.044327,69.492538 
	C131.453995,77.986778 132.481903,86.503464 127.378754,94.369171 
	C126.678154,95.449036 126.587013,96.924324 126.294830,97.935722 
	C128.890503,98.557297 130.794357,99.013214 132.698212,99.469124 
	C132.092239,101.583961 131.176819,103.667854 130.961365,105.821754 
	C130.711563,108.319046 131.076614,110.877838 131.174774,113.409935 
z"/>
<path fill="#04D8DF" opacity="1.000000" stroke="none" 
	d="
M131.420654,113.131889 
	C131.076614,110.877838 130.711563,108.319046 130.961365,105.821754 
	C131.176819,103.667854 132.092239,101.583961 132.698212,99.469124 
	C130.794357,99.013214 128.890503,98.557297 126.294830,97.935722 
	C126.587013,96.924324 126.678154,95.449036 127.378754,94.369171 
	C132.481903,86.503464 131.453995,77.986778 130.044327,69.492538 
	C129.240982,64.651726 128.126984,60.229359 130.414337,55.138680 
	C132.141846,51.293983 131.892059,46.359200 131.664169,41.953976 
	C131.590805,40.535572 128.785233,39.258507 126.784714,37.876244 
	C128.386734,32.433666 130.433640,27.031635 133.103012,21.316978 
	C142.359680,21.010233 142.355530,21.010086 142.052948,29.593578 
	C142.029678,30.254143 142.065201,30.927963 142.169800,31.580158 
	C143.521515,40.007744 145.377060,48.385506 144.053131,57.029087 
	C143.835617,58.449219 143.763840,60.442944 144.558945,61.372414 
	C148.190903,65.618156 145.966019,68.890579 144.100479,73.067390 
	C142.900436,75.754227 139.175720,79.329292 143.020767,83.002487 
	C139.236023,92.952942 135.451279,102.903389 131.420654,113.131889 
z"/>
<path fill="#04DCE2" opacity="1.000000" stroke="none" 
	d="
M143.204132,82.693329 
	C139.175720,79.329292 142.900436,75.754227 144.100479,73.067390 
	C145.966019,68.890579 148.190903,65.618156 144.558945,61.372414 
	C143.763840,60.442944 143.835617,58.449219 144.053131,57.029087 
	C145.377060,48.385506 143.521515,40.007744 142.169800,31.580158 
	C142.065201,30.927963 142.029678,30.254143 142.052948,29.593578 
	C142.355530,21.010086 142.359680,21.010233 133.272156,21.007338 
	C133.887543,20.159033 134.944458,18.585632 136.026855,18.567905 
	C147.130463,18.386072 158.238220,18.456465 170.659821,18.456465 
	C161.362427,40.250069 152.374969,61.317120 143.204132,82.693329 
z"/>
<path fill="#0AADBA" opacity="1.000000" stroke="none" 
	d="
M50.002213,54.599037 
	C48.509624,55.234352 45.797886,55.885010 45.714474,55.640194 
	C44.981373,53.488445 44.716476,51.177185 44.312920,48.913162 
	C44.871082,48.703239 45.429249,48.493317 45.987411,48.283394 
	C47.136200,49.079105 48.284992,49.874817 49.716660,50.835194 
	C50.000290,52.066292 50.001038,53.132729 50.002213,54.599037 
z"/>
<path fill="#09B4C0" opacity="1.000000" stroke="none" 
	d="
M66.996147,150.667877 
	C64.323372,152.763275 61.218407,151.125198 60.322098,146.931732 
	C59.263157,141.977402 58.749691,136.906509 57.999573,131.442764 
	C59.712280,130.553040 61.425171,130.106674 64.371758,129.338852 
	C59.038120,136.891342 65.534500,142.337387 66.644684,148.867828 
	C66.996033,149.447495 66.996300,149.891251 66.996147,150.667877 
z"/>
<path fill="#08BAC5" opacity="1.000000" stroke="none" 
	d="
M69.845200,157.758179 
	C70.533997,155.128937 70.869568,152.760406 71.847466,150.696198 
	C72.364014,149.605820 73.999603,149.045563 75.129967,148.245972 
	C75.745361,149.434265 76.863182,150.619171 76.871246,151.811569 
	C76.887871,154.270065 76.739845,156.904007 75.843941,159.138779 
	C75.136375,160.903793 73.162964,163.466385 71.833557,163.418152 
	C68.595718,163.300735 68.894623,160.568161 69.845200,157.758179 
z"/>
<path fill="#0AA9B7" opacity="1.000000" stroke="none" 
	d="
M29.069286,25.344738 
	C29.324596,23.903099 29.649841,22.801239 29.985584,21.351746 
	C31.243221,21.819069 33.145538,22.400312 33.544205,23.517927 
	C33.907330,24.535894 32.638535,26.135984 32.089054,27.479485 
	C31.105778,26.881163 30.122499,26.282841 29.069286,25.344738 
z"/>
<path fill="#0AA9B7" opacity="1.000000" stroke="none" 
	d="
M35.618797,33.846046 
	C36.344193,34.030121 36.880169,34.410427 37.416149,34.790730 
	C37.115067,35.077778 36.813984,35.364830 36.512901,35.651878 
	C36.151730,35.115345 35.790558,34.578812 35.618797,33.846046 
z"/>
<path fill="#08BEC8" opacity="1.000000" stroke="none" 
	d="
M80.985474,169.105194 
	C80.298027,165.427383 82.805687,165.916092 84.596535,166.320389 
	C85.409187,166.503830 85.899529,168.115036 86.536087,169.078568 
	C84.762413,169.171204 82.988739,169.263840 80.985474,169.105194 
z"/>
</svg>